<?xml version="1.0" encoding="UTF-8"?> <svg xmlns="http://www.w3.org/2000/svg" width="60" height="60" viewBox="0 0 60 60" fill="none"> <path d="M20.9735 16.2593C19.588 12.65 20.5548 8.92196 23.1328 7.93236C24.7554 7.30949 28.1414 9.35793 28.1414 9.35793C29.6531 7.91996 31.5273 7.30949 33.1499 7.93236C35.728 8.92196 36.6947 12.65 35.3093 16.2593C33.9254 19.8645 28 22.5 28 22.5C28 22.5 22.3574 19.8645 20.9735 16.2593Z" stroke="#2C2B29" stroke-width="2" stroke-linecap="round" stroke-linejoin="round"></path> <path d="M31.9244 53.8155C34.2948 55.204 37.0544 56 40 56C48.8366 56 56 48.8366 56 40C56 31.1634 48.8366 24 40 24C31.1634 24 24 31.1634 24 40C24 43.229 24.9565 46.2346 26.6017 48.7489" stroke="#2C2B29" stroke-width="2" stroke-linecap="round" stroke-linejoin="round"></path> <path d="M25.1653 27.1485C23.4248 26.4091 21.5102 26 19.5 26C11.4919 26 5 32.4919 5 40.5C5 48.5081 11.4919 55 19.5 55C27.5081 55 34 48.5081 34 40.5C34 37.1794 32.8838 34.1196 31.0062 31.6751" stroke="#2C2B29" stroke-width="2" stroke-linecap="round" stroke-linejoin="round"></path> </svg> 